<svg viewBox="0 0 200 200" xmlns="http://www.w3.org/2000/svg">
  <defs>
    <!-- Gradients for beautiful colors -->
    <linearGradient id="moonGradient" x1="0%" y1="0%" x2="100%" y2="100%">
      <stop offset="0%" style="stop-color:#f4d03f;stop-opacity:1" />
      <stop offset="50%" style="stop-color:#f39c12;stop-opacity:1" />
      <stop offset="100%" style="stop-color:#e67e22;stop-opacity:1" />
    </linearGradient>
    
    <linearGradient id="houseGradient" x1="0%" y1="0%" x2="100%" y2="100%">
      <stop offset="0%" style="stop-color:#8B5CF6;stop-opacity:1" />
      <stop offset="100%" style="stop-color:#6366F1;stop-opacity:1" />
    </linearGradient>
    
    <linearGradient id="backgroundGradient" x1="0%" y1="0%" x2="100%" y2="100%">
      <stop offset="0%" style="stop-color:#1e3a8a;stop-opacity:1" />
      <stop offset="50%" style="stop-color:#1e40af;stop-opacity:1" />
      <stop offset="100%" style="stop-color:#1d4ed8;stop-opacity:1" />
    </linearGradient>
    
    <radialGradient id="glowEffect" cx="50%" cy="30%" r="70%">
      <stop offset="0%" style="stop-color:#fbbf24;stop-opacity:0.8" />
      <stop offset="50%" style="stop-color:#f59e0b;stop-opacity:0.4" />
      <stop offset="100%" style="stop-color:#d97706;stop-opacity:0.1" />
    </radialGradient>
    
    <!-- Drop shadow filter -->
    <filter id="dropShadow" x="-50%" y="-50%" width="200%" height="200%">
      <feDropShadow dx="2" dy="4" stdDeviation="3" flood-color="#000000" flood-opacity="0.3"/>
    </filter>
    
    <!-- Glow filter -->
    <filter id="glow" x="-50%" y="-50%" width="200%" height="200%">
      <feGaussianBlur stdDeviation="4" result="coloredBlur"/>
      <feMerge> 
        <feMergeNode in="coloredBlur"/>
        <feMergeNode in="SourceGraphic"/>
      </feMerge>
    </filter>
  </defs>

  <!-- Background Circle -->
  <circle cx="100" cy="100" r="95" fill="url(#backgroundGradient)" stroke="rgba(255,255,255,0.2)" stroke-width="2"/>
  
  <!-- Glow effect background -->
  <circle cx="100" cy="100" r="90" fill="url(#glowEffect)" opacity="0.6"/>
  
  <!-- Moon -->
  <circle cx="100" cy="60" r="25" fill="url(#moonGradient)" filter="url(#glow)"/>
  
  <!-- Moon craters for detail -->
  <circle cx="95" cy="55" r="3" fill="rgba(0,0,0,0.1)"/>
  <circle cx="105" cy="58" r="2" fill="rgba(0,0,0,0.1)"/>
  <circle cx="100" cy="65" r="1.5" fill="rgba(0,0,0,0.1)"/>
  
  <!-- Shine rays from moon -->
  <g opacity="0.7">
    <line x1="75" y1="45" x2="85" y2="55" stroke="#fbbf24" stroke-width="2" stroke-linecap="round"/>
    <line x1="125" y1="45" x2="115" y2="55" stroke="#fbbf24" stroke-width="2" stroke-linecap="round"/>
    <line x1="85" y1="35" x2="90" y2="45" stroke="#fbbf24" stroke-width="1.5" stroke-linecap="round"/>
    <line x1="115" y1="35" x2="110" y2="45" stroke="#fbbf24" stroke-width="1.5" stroke-linecap="round"/>
    <line x1="100" y1="30" x2="100" y2="40" stroke="#fbbf24" stroke-width="2" stroke-linecap="round"/>
  </g>
  
  <!-- House Structure -->
  <!-- House base -->
  <rect x="60" y="120" width="80" height="50" fill="url(#houseGradient)" filter="url(#dropShadow)" rx="4"/>
  
  <!-- Roof -->
  <polygon points="55,120 100,90 145,120" fill="#e67e22" filter="url(#dropShadow)"/>
  <polygon points="60,120 100,95 140,120" fill="#f39c12"/>
  
  <!-- Chimney -->
  <rect x="120" y="100" width="8" height="15" fill="#8B4513" rx="1"/>
  <rect x="118" y="98" width="12" height="4" fill="#A0522D" rx="1"/>
  
  <!-- Smoke from chimney -->
  <g opacity="0.6">
    <circle cx="124" cy="92" r="2" fill="#e5e7eb"/>
    <circle cx="126" cy="87" r="1.5" fill="#e5e7eb"/>
    <circle cx="128" cy="83" r="1" fill="#e5e7eb"/>
  </g>
  
  <!-- Door -->
  <rect x="90" y="140" width="20" height="30" fill="#8B4513" rx="2"/>
  <rect x="92" y="142" width="16" height="26" fill="#A0522D" rx="1"/>
  <circle cx="105" cy="155" r="1.5" fill="#fbbf24"/>
  
  <!-- Windows -->
  <rect x="70" y="135" width="12" height="12" fill="#87CEEB" rx="1" stroke="#4682B4" stroke-width="1"/>
  <rect x="118" y="135" width="12" height="12" fill="#87CEEB" rx="1" stroke="#4682B4" stroke-width="1"/>
  
  <!-- Window frames -->
  <line x1="76" y1="135" x2="76" y2="147" stroke="#4682B4" stroke-width="1"/>
  <line x1="70" y1="141" x2="82" y2="141" stroke="#4682B4" stroke-width="1"/>
  <line x1="124" y1="135" x2="124" y2="147" stroke="#4682B4" stroke-width="1"/>
  <line x1="118" y1="141" x2="130" y2="141" stroke="#4682B4" stroke-width="1"/>
  
  <!-- Garden/landscape elements -->
  <ellipse cx="50" cy="170" rx="15" ry="5" fill="#90EE90" opacity="0.7"/>
  <ellipse cx="150" cy="170" rx="20" ry="6" fill="#90EE90" opacity="0.7"/>
  
  <!-- Trees -->
  <circle cx="45" cy="155" r="8" fill="#228B22"/>
  <rect x="43" y="160" width="4" height="15" fill="#8B4513"/>
  
  <circle cx="155" cy="150" r="10" fill="#228B22"/>
  <rect x="152" y="155" width="6" height="20" fill="#8B4513"/>
  
  <!-- Stars around the moon -->
  <g fill="#fbbf24" opacity="0.8">
    <polygon points="65,70 66,72 68,71 66,73 67,75 65,74 63,75 64,73 62,71 64,72"/>
    <polygon points="135,75 136,77 138,76 136,78 137,80 135,79 133,80 134,78 132,76 134,77"/>
    <polygon points="80,85 81,87 83,86 81,88 82,90 80,89 78,90 79,88 77,86 79,87"/>
    <polygon points="120,85 121,87 123,86 121,88 122,90 120,89 118,90 119,88 117,86 119,87"/>
  </g>
  
  <!-- Company name integration -->
  <text x="100" y="190" text-anchor="middle" font-family="serif" font-size="12" font-weight="bold" fill="#fbbf24">
    MOON SHINE
  </text>
  
  <!-- Decorative border -->
  <circle cx="100" cy="100" r="95" fill="none" stroke="url(#moonGradient)" stroke-width="3" opacity="0.8"/>
</svg>